PathFileType	4	(X/Y/Z)	C:\Users\WrightLab\Desktop\Jo\P3_36.trc
DataRate	CameraRate	NumFrames	NumMarkers	Units	OrigDataRate	OrigDataStartFrame	OrigNumFrames
100.00	100.00	       10	19	mm	100.00	220	       584
Frame#	Time	Headset_Front			Headset_Back			Headset_Left			Headset_Right			Left_Shoulder			Right_Shoulder			Sternum			C7			Left Elbow			Right Elbow			Left Wrist			Right Wrist			Left ASIS			Right ASIS			S2			Left Knee			Right Knee			Left Ankle			Right Ankle			
		X1	Y1	Z1	X2	Y2	Z2	X3	Y3	Z3	X4	Y4	Z4	X5	Y5	Z5	X6	Y6	Z6	X7	Y7	Z7	X8	Y8	Z8	X9	Y9	Z9	X10	Y10	Z10	X11	Y11	Z11	X12	Y12	Z12	X13	Y13	Z13	X14	Y14	Z14	X15	Y15	Z15	X16	Y16	Z16	X17	Y17	Z17	X18	Y18	Z18	X19	Y19	Z19	

220	2.190	-233.11786	1465.22229	639.04425	-150.28886	1645.16516	867.13446	-284.15762	1565.13806	816.02850	-102.77273	1529.09961	680.65881	-303.25400	1344.53870	945.71161	33.83286	1371.07983	807.02136	-182.36984	1240.49048	754.66461	-117.11590	1414.46582	918.47308	-326.50833	1007.45697	999.47980	134.20705	1030.60095	799.12341	-362.25815	818.65344	917.13672	78.84584	856.90845	663.17316	-249.22849	871.52844	825.98004				-54.20671	962.66223	971.81525	-173.92587	453.81046	874.83350	-31.35347	479.90472	647.49561	-94.98624	133.18140	911.27997	67.18204	229.21024	856.80542	
221	2.200	-235.97502	1464.47070	630.53467	-153.95067	1644.86853	858.60394	-286.96158	1564.56580	807.30902	-104.42653	1528.27661	681.27350	-305.57855	1345.13428	938.78357	30.53988	1370.63867	796.90680	-186.38255	1239.84485	747.42358	-119.81561	1414.57007	910.38971	-330.93961	1008.21387	989.70166	131.14560	1030.29370	788.37671	-368.95300	820.52985	905.20868	74.57154	857.21649	651.49109	-252.16493	870.62238	821.18823				-54.47540	962.60736	963.71936	-174.76949	453.57257	872.77515	-39.43977	482.52365	634.51471	-95.00786	133.47739	910.70331	58.50135	221.29936	831.56958	
222	2.210	-238.31140	1464.17163	621.73535	-156.86154	1644.89990	849.81610	-289.98975	1564.57410	798.49139	-107.87096	1527.93640	664.12354	-307.65540	1345.50122	931.87122	27.34218	1369.97888	786.98682	-189.87047	1239.15955	740.27032	-121.87183	1414.58301	901.36517	-335.74799	1008.24786	980.98383	126.85151	1028.68994	776.87836	-375.55466	822.46399	893.34479	69.80570	857.81586	639.16656	-254.71629	870.26666	815.93073				-55.81900	961.52478	955.73645	-175.73048	452.81137	870.28290	-47.97811	484.32541	623.01068	-94.92314	133.58957	909.64368	49.44218	213.70982	805.34827	
223	2.220	-240.83331	1463.40051	612.93036	-159.34062	1644.35474	841.09436	-293.03098	1564.33606	789.85565	-111.09385	1527.71777	653.43109	-309.61237	1345.52905	924.35461	23.92892	1369.37207	777.77112	-193.67450	1238.21057	733.21960	-124.46734	1414.32324	893.00037	-340.71405	1008.38513	971.51074	124.69079	1029.11902	765.90527	-381.90637	824.15240	880.93164	65.72575	858.17493	627.64301	-256.84998	869.43536	810.02472				-56.59938	962.11932	947.69885	-176.62321	453.09076	866.84235	-55.49350	486.56204	610.78802	-95.06458	133.73534	909.26111	39.65904	205.44769	779.06921	
224	2.230	-243.18652	1462.76379	604.12024	-162.70242	1644.06970	832.52502	-296.42694	1564.00085	780.94135	-112.95612	1528.04236	647.95514	-311.65274	1345.57092	917.78290	20.21144	1368.81494	767.58081	-197.12672	1237.27759	726.97736	-127.07961	1414.35693	884.74347	-345.04596	1008.32086	961.40601	121.61731	1028.14478	754.97186	-387.28204	825.82501	869.12653	61.59348	858.37518	615.86780	-259.14706	869.05823	804.41071				-57.46946	961.86731	939.61072	-177.38617	452.95551	863.96063	-62.85634	487.91534	599.75800	-95.27216	134.03780	908.76025	28.80199	197.23770	753.78149	
225	2.240	-245.88336	1461.99670	595.58777	-166.26633	1643.76575	823.95911	-298.85962	1563.05652	771.82068	-116.03286	1526.90161	637.34137	-313.84482	1345.64746	911.04822	16.96369	1367.91077	758.09442	-201.19742	1236.32312	719.56714	-128.28302	1413.81836	876.39691	-349.94467	1007.98126	951.78021	118.11137	1027.69812	743.65637	-393.76804	827.52869	856.83704	56.74211	859.05817	603.70288	-261.70862	868.18610	798.84363				-58.80402	961.48834	931.44128	-178.34067	452.37955	860.84833	-70.55371	488.74484	590.18250	-95.42461	134.15274	907.96558	16.89494	188.82413	726.58020	
226	2.250	-248.59673	1461.34717	587.25507	-168.85646	1642.78333	815.29840	-301.90363	1562.56677	763.36859	-118.11581	1526.48083	631.62067	-316.13873	1345.26575	903.11176	13.40527	1366.91980	748.58978	-204.83815	1235.06519	712.34540	-130.76599	1414.23877	867.64716	-354.51666	1007.75446	942.81226	114.91299	1027.03052	732.36609	-400.59302	829.21368	844.79773	52.77526	859.32361	591.31189	-263.63223	866.80005	793.35345				-60.21551	961.19348	923.26880	-179.64023	452.41980	857.62964	-77.84197	489.51825	580.74530	-95.52963	134.28325	907.59119	4.77972	180.62689	700.66241	
227	2.260	-250.87848	1460.29407	578.31213	-171.68321	1641.73877	806.85309	-304.57529	1561.76135	754.19800	-123.05312	1526.88477	618.60791	-318.34537	1344.63745	896.06146	9.92403	1365.98804	738.58667	-208.73056	1233.96851	704.86713	-133.66922	1412.99817	859.46002	-359.79553	1007.49054	933.08105	110.22337	1025.11011	720.79523	-406.88358	830.81580	832.47137	48.43076	859.74084	579.31488	-266.70532	867.03278	786.98499				-60.41693	960.50171	915.15204	-180.69550	452.25034	854.32697	-84.80589	489.25580	571.81824	-95.65178	134.83936	907.01361	-8.41552	173.53833	674.69617	
228	2.270	-253.50092	1458.91235	569.83435	-174.93158	1641.18457	798.23889	-307.63763	1560.59839	745.45081	-124.79108	1523.91589	610.48346	-320.38260	1344.19189	889.39758	6.65564	1364.73889	729.83167	-211.96060	1232.69482	697.72546	-135.90594	1412.35596	851.47443	-364.92987	1007.71124	923.88354	107.90444	1025.27356	710.38159	-413.74695	832.89984	820.38275	43.85950	860.17865	567.26270	-269.79581	866.44647	781.02747				-62.12106	959.89093	907.03583	-181.84727	451.78711	851.23114	-90.98568	488.85681	563.41315	-95.83080	134.99792	906.63019	-22.36390	166.81281	649.38745	
229	2.280	-256.07462	1457.98096	561.42999	-178.68985	1640.75903	789.71100	-310.71854	1559.65881	736.73651	-126.50652	1523.17297	605.21735	-322.73843	1343.66492	882.40198	2.68338	1363.96887	720.00159	-215.97047	1231.53918	689.96912	-139.35088	1411.56409	842.20978	-369.63058	1006.95880	914.34204	104.10486	1024.14697	698.81354	-419.14493	833.62866	808.97113	39.62786	860.53711	554.72699	-272.66913	865.83612	774.84918				-62.85752	959.77350	898.34729	-183.11620	451.35562	848.04510	-96.90775	488.18607	554.83148	-94.84219	135.04080	906.14709	-36.77121	159.65828	624.20673	
